<svg id="bear" xmlns="http://www.w3.org/2000/svg" viewBox="0 0 450 150">
    <defs>
        <style>
            .cls-1{fill:none}
            .cls-2{fill:#e5e5e5}
            .cls-3{fill:#fff}
            .cls-4{fill:#fffbea}
            .cls-5{fill:#e3dbbc}
            .cls-6{fill:#2d2d2d}
            .cls-7{fill:#231f20}
        </style>
    </defs>
    <g id="bear_group">
        <g id="front_left_leg" class="leg" data-name="front left leg">
            <path class="cls-1" d="M101.5,258.49v-.16h0C101.51,258.38,101.5,258.44,101.5,258.49Z"/>
            <path class="cls-1" d="M100.51,260.08c.4-.31.38-.3,0,0Z"/>
            <path class="cls-1" d="M99.58,260.33h0c-.31-.06-.33-.05-.07,0Z"/>
            <path class="cls-1" d="M70.35,258.69a.87.87,0,0,0,0,.23Z"/>
            <path class="cls-1" d="M100.54,255.81l.1.14C100.59,255.86,100.56,255.8,100.54,255.81Z"/>
            <path class="cls-2" d="M77.91,250.45a7.55,7.55,0,0,1,1.45-3.16,3.83,3.83,0,0,1,2.24-1.57,1.7,1.7,0,0,1,1.11-.05,1.87,1.87,0,0,1,.9.65,2.39,2.39,0,0,1,.78,1.23c.08.3,0,.27-.11-.11a7.68,7.68,0,0,1,.32.79A7.86,7.86,0,0,1,85,250a6,6,0,0,1,.14,1.06,2.17,2.17,0,0,1,0,.25A35.51,35.51,0,0,0,90,248.83a9.87,9.87,0,0,1,.51-2.47,5.62,5.62,0,0,1,1.11-2.09,5,5,0,0,1,.84-.67c.29-.19,1.24-.69.47-.22a2.4,2.4,0,0,1,2.21-.13,2.27,2.27,0,0,1,1,.76c.2-.2.4-.39.59-.59q1.29-1.53,2.61-3a34.39,34.39,0,0,0,4.75-8.36c2.14-5.45,3.23-11.23,4.28-17q3.53-19.11,7-38.2c.38-2,3-2.28,4.25-1-.93-9.14-3.14-18.18-8.92-25.57a28.78,28.78,0,0,0-27.19-11c-9.73,1.25-19.9,5.32-26.88,12.39C49.13,159.28,47,170,46.42,180.31q-.2,3.41-.09,6.81c-1.62,21.06,2.34,47.49,18.48,60.65a6.44,6.44,0,0,1,.64-1.07,4.57,4.57,0,0,1,1.31-1.28,3.21,3.21,0,0,1,1.77-.35h0a.51.51,0,0,1,.84.49v0a.7.7,0,0,0,.3.14,2.29,2.29,0,0,1,.6,1,4.72,4.72,0,0,1,.22,1.19,14.53,14.53,0,0,1,.08,1.62c0,.67,0,1.34,0,2a35.73,35.73,0,0,0,7.13,2.85A13.61,13.61,0,0,1,77.91,250.45Z"/>
            <path class="cls-3" d="M69.17,245.23a.38.38,0,0,0,.06.22Z"/>
            <path class="cls-3" d="M104.86,248.19c-.52.61-1.07,1.21-1.64,1.79.54-.38,1.07-.78,1.59-1.19a36,36,0,0,0,2.28-3.49C106.39,246.28,105.65,247.25,104.86,248.19Z"/>
            <path class="cls-4" d="M98.1,251.08a.68.68,0,0,0,.1.25Z"/>
            <path class="cls-5" d="M120.05,181.21c-.1-1.78-.24-3.58-.42-5.37-1.24-1.25-3.87-1-4.25,1q-3.51,19.09-7,38.2c-1,5.73-2.14,11.51-4.28,17a34.39,34.39,0,0,1-4.75,8.36q-1.32,1.5-2.61,3c-.19.2-.39.39-.59.59l.07.1a5.27,5.27,0,0,1,1,3.15.11.11,0,0,0,0,.06c0,.27.07.55.11.83-.18-1.33,0-.17.07.15.13.6.24,1.21.43,1.8.09.29.19.57.3.85l.15.42a1.26,1.26,0,0,1,0,.16l.22.36c.12.22.25.43.39.64a31.28,31.28,0,0,0,4.31-2.55c.57-.58,1.12-1.18,1.64-1.79.79-.94,1.53-1.91,2.23-2.89a36,36,0,0,1-2.28,3.49,34.65,34.65,0,0,0,9-10.89c6.24-11.84,7-26.25,6.22-39.69A139.76,139.76,0,0,0,120.05,181.21Z"/>
            <path class="cls-5" d="M90,249.12c0-.1,0-.19,0-.29a35.51,35.51,0,0,1-4.86,2.52c0,.09,0,.18,0,.27s0,.35.07.53.07.46.11.68c.2.94.45,1.87.74,2.78a27.8,27.8,0,0,0,5.17-.52c0-.08-.08-.16-.12-.25A11.81,11.81,0,0,1,90,249.12Z"/>
            <path class="cls-6" d="M70.48,248a4.72,4.72,0,0,0-.22-1.19,2.29,2.29,0,0,0-.6-1,.7.7,0,0,1-.3-.14v0a.51.51,0,0,0-.84-.49h0a3.21,3.21,0,0,0-1.77.35,4.57,4.57,0,0,0-1.31,1.28,6.44,6.44,0,0,0-.64,1.07,11.88,11.88,0,0,0-.58,1.43,11.66,11.66,0,0,0-.2,5.69,7.26,7.26,0,0,0,1.06,2.46c.16.25.38.47.54.71s.18.29.2.31l.29.32c.09.11.16.23.25.35a19,19,0,0,0,1.75,1.73,5.24,5.24,0,0,0,1.75,1.36.89.89,0,0,0,1.13-.86,16.12,16.12,0,0,0-.61-2.13s0-.07,0-.1c0-.27,0-.4-.06-.44a3.94,3.94,0,0,0,0-.66,4.3,4.3,0,0,0-.07-.62c0-.36,0-1.06,0-.45,0,.21.16-2,.1-.85,0-.43.12-.87.15-1.31a17.85,17.85,0,0,0,0-1.79c0-.44,0-.89,0-1.34,0-.66,0-1.33,0-2A14.53,14.53,0,0,0,70.48,248Zm-.13,10.73v.23A.87.87,0,0,1,70.35,258.69Zm-1.12-13.24a.38.38,0,0,1-.06-.22Z"/>
            <path class="cls-6" d="M85.26,252.15c0-.18,0-.35-.07-.53s0-.18,0-.27a2.17,2.17,0,0,0,0-.25A6,6,0,0,0,85,250a7.86,7.86,0,0,0-.37-1.81,7.68,7.68,0,0,0-.32-.79c.15.38.19.41.11.11a2.39,2.39,0,0,0-.78-1.23,1.87,1.87,0,0,0-.9-.65,1.7,1.7,0,0,0-1.11.05,3.83,3.83,0,0,0-2.24,1.57,7.55,7.55,0,0,0-1.45,3.16,14.35,14.35,0,0,0,.16,6.2c.55,2.12,1.5,4.42,3.51,5.52a4.42,4.42,0,0,0,1.06.49c-.22-.16-.26-.19-.1-.09a1.62,1.62,0,0,0,.42.2l.43.16.33.18a7,7,0,0,0,2.48.77,1.24,1.24,0,0,0,1.19-1.56,4.41,4.41,0,0,0-.29-.89c0-.08,0-.15,0-.27l-.13-.39a1.52,1.52,0,0,1-.06-.2,3.51,3.51,0,0,0-.06-.69,8.25,8.25,0,0,0-.56-3.79c0-.16-.09-.32-.14-.48-.29-.91-.54-1.84-.74-2.78C85.33,252.61,85.31,252.37,85.26,252.15Z"/>
            <path class="cls-6" d="M98.3,251.53a1.26,1.26,0,0,0,0-.16L98.1,251c-.11-.28-.21-.56-.3-.85-.19-.59-.3-1.2-.43-1.8-.07-.32-.25-1.48-.07-.15,0-.28-.08-.56-.11-.83a.11.11,0,0,1,0-.06,5.27,5.27,0,0,0-1-3.15l-.07-.1a2.27,2.27,0,0,0-1-.76,2.4,2.4,0,0,0-2.21.13c.77-.47-.18,0-.47.22a5,5,0,0,0-.84.67,5.62,5.62,0,0,0-1.11,2.09,9.87,9.87,0,0,0-.51,2.47c0,.1,0,.19,0,.29a11.81,11.81,0,0,0,1.19,5.72c0,.09.09.17.12.25A10.57,10.57,0,0,0,94,258.83a7.14,7.14,0,0,0,3.84,1.59H98c.3,0,.19,0-.32,0,.07.09.39.11.49.13a3.18,3.18,0,0,0,1.47,0l.32-.14h0a3.25,3.25,0,0,0,.54,0l.14,0h.14a3,3,0,0,0,.52,0,1.26,1.26,0,0,0,1.14-.76,1.24,1.24,0,0,0-.26-1.37,5.07,5.07,0,0,1-.61-.52l-.12-.15a2.48,2.48,0,0,0-.34-.94,3.76,3.76,0,0,0-.28-.36,10.88,10.88,0,0,0-.86-2c-.31-.53-.66-1-1-1.57a.83.83,0,0,1-.07-.13c-.14-.21-.27-.42-.39-.64Zm3.2,7c0-.05,0-.11,0-.17h0Zm-1,1.59h0C100.89,259.78,100.91,259.77,100.51,260.08Zm.13-4.13-.1-.14S100.59,255.86,100.64,256Zm-1.08,4.38h0l-.09,0C99.23,260.28,99.25,260.27,99.56,260.33Zm-1.36-9a.68.68,0,0,1-.1-.25Z"/>
        </g>
        <g id="back_left_leg" class="leg" data-name="back left leg">
            <path class="cls-1" d="M304,249.87v-.16h0C304.05,249.76,304,249.82,304,249.87Z"/>
            <path class="cls-1" d="M303.05,251.46c.4-.31.38-.3,0,0Z"/>
            <path class="cls-1" d="M302.12,251.71h0c-.3-.06-.33-.05-.06,0Z"/>
            <path class="cls-1" d="M272.88,250.07a1.48,1.48,0,0,0,0,.23C272.89,250.19,272.88,250.12,272.88,250.07Z"/>
            <path class="cls-1" d="M303.08,247.19l.1.14C303.13,247.24,303.09,247.18,303.08,247.19Z"/>
            <path class="cls-2" d="M280.45,241.83a7.51,7.51,0,0,1,1.45-3.15,3.74,3.74,0,0,1,2.24-1.57,1.64,1.64,0,0,1,1.11-.06,1.79,1.79,0,0,1,.89.65,2.33,2.33,0,0,1,.78,1.23c.09.3.05.27-.1-.11a7.68,7.68,0,0,1,.32.79,8.43,8.43,0,0,1,.37,1.81,7.13,7.13,0,0,1,.14,1.06,2.17,2.17,0,0,1,0,.25,36.09,36.09,0,0,0,4.86-2.52,9.44,9.44,0,0,1,.51-2.47,5.48,5.48,0,0,1,1.11-2.09A5.41,5.41,0,0,1,295,235c.3-.19,1.24-.69.48-.22a2.4,2.4,0,0,1,2.21-.13,2.27,2.27,0,0,1,1,.76l.59-.59c.86-1,1.73-2,2.61-3a34.39,34.39,0,0,0,4.75-8.36c2.14-5.45,3.22-11.23,4.28-17q3.53-19.09,7-38.2c.37-2,3-2.28,4.25-1-.93-9.14-3.14-18.18-8.92-25.57a28.78,28.78,0,0,0-27.19-11c-9.73,1.25-19.9,5.32-26.88,12.39-7.51,7.62-9.64,18.33-10.22,28.65q-.19,3.41-.09,6.81c-1.62,21.06,2.34,47.49,18.48,60.65a6.18,6.18,0,0,1,.64-1.07,4.41,4.41,0,0,1,1.31-1.27,3.13,3.13,0,0,1,1.77-.36h0a.5.5,0,0,1,.84.48v0a.7.7,0,0,0,.3.14,2.29,2.29,0,0,1,.6,1,4.72,4.72,0,0,1,.22,1.19,14.53,14.53,0,0,1,.08,1.62v2a35.82,35.82,0,0,0,7.14,2.85A13.28,13.28,0,0,1,280.45,241.83Z"/>
            <path class="cls-3" d="M271.71,236.62a.46.46,0,0,0,.05.21Z"/>
            <path class="cls-3" d="M307.4,239.57c-.52.61-1.08,1.21-1.64,1.79.54-.38,1.07-.78,1.59-1.19a40.19,40.19,0,0,0,2.28-3.49C308.93,237.67,308.19,238.63,307.4,239.57Z"/>
            <path class="cls-4" d="M300.64,242.46a.85.85,0,0,0,.09.25Z"/>
            <path class="cls-5" d="M322.59,172.59c-.1-1.78-.24-3.58-.42-5.37-1.24-1.25-3.88-1-4.25,1q-3.51,19.09-7,38.2c-1.06,5.73-2.14,11.51-4.28,17a34.39,34.39,0,0,1-4.75,8.36c-.88,1-1.75,2-2.61,3l-.59.59.06.1a5.21,5.21,0,0,1,1,3.15v.06l.12.83c-.18-1.33,0-.17.07.15.13.6.24,1.21.42,1.81.09.28.2.56.31.84l.15.42c0,.08,0,.12,0,.16l.22.36c.12.22.25.43.38.64a30.8,30.8,0,0,0,4.32-2.55c.56-.58,1.12-1.18,1.64-1.79.79-.94,1.53-1.9,2.23-2.89a40.19,40.19,0,0,1-2.28,3.49,34.65,34.65,0,0,0,9-10.89c6.24-11.84,7-26.25,6.21-39.69A139.76,139.76,0,0,0,322.59,172.59Z"/>
            <path class="cls-5" d="M292.51,240.5a2.89,2.89,0,0,1,0-.29,36.09,36.09,0,0,1-4.86,2.52c0,.09,0,.18,0,.28s0,.35.07.52.07.46.11.68c.2.94.45,1.87.74,2.78a27.8,27.8,0,0,0,5.17-.52l-.12-.24A11.87,11.87,0,0,1,292.51,240.5Z"/>
            <path class="cls-6" d="M273,239.34a4.72,4.72,0,0,0-.22-1.19,2.29,2.29,0,0,0-.6-1,.7.7,0,0,1-.3-.14v0a.5.5,0,0,0-.84-.48h0a3.13,3.13,0,0,0-1.77.36,4.41,4.41,0,0,0-1.31,1.27,6.18,6.18,0,0,0-.64,1.07,11.88,11.88,0,0,0-.58,1.43,11.54,11.54,0,0,0-.2,5.69,7.18,7.18,0,0,0,1.06,2.46c.16.25.38.47.54.72l.2.3.29.32.25.35a19,19,0,0,0,1.75,1.73,5.15,5.15,0,0,0,1.75,1.36.9.9,0,0,0,1.13-.86,16.12,16.12,0,0,0-.61-2.13s0-.07,0-.1a3.46,3.46,0,0,0-.05-.44,3.89,3.89,0,0,0,0-.65,3,3,0,0,0-.08-.63c0-.36,0-1.06,0-.45,0,.21.16-2,.1-.85,0-.43.12-.87.15-1.31,0-.59,0-1.19,0-1.79,0-.44,0-.89,0-1.34v-2A14.53,14.53,0,0,0,273,239.34Zm-.14,10.73c0,.05,0,.12,0,.23A1.48,1.48,0,0,1,272.88,250.07Zm-1.12-13.24a.46.46,0,0,1-.05-.21Z"/>
            <path class="cls-6" d="M287.8,243.53c0-.17,0-.35-.07-.52s0-.19,0-.28a2.17,2.17,0,0,0,0-.25,7.13,7.13,0,0,0-.14-1.06,8.43,8.43,0,0,0-.37-1.81,7.68,7.68,0,0,0-.32-.79c.15.38.19.41.1.11a2.33,2.33,0,0,0-.78-1.23,1.79,1.79,0,0,0-.89-.65,1.64,1.64,0,0,0-1.11.06,3.74,3.74,0,0,0-2.24,1.57,7.51,7.51,0,0,0-1.45,3.15,13.28,13.28,0,0,0-.21,4,13.7,13.7,0,0,0,.36,2.22c.56,2.12,1.51,4.42,3.52,5.52a4.25,4.25,0,0,0,1.06.49c-.23-.16-.26-.18-.1-.09a1.62,1.62,0,0,0,.42.2l.43.16.33.18a7,7,0,0,0,2.48.77,1.24,1.24,0,0,0,1.19-1.56,4.41,4.41,0,0,0-.29-.89,1.56,1.56,0,0,1,0-.27l-.14-.39-.06-.2a2.84,2.84,0,0,0,0-.69,8.25,8.25,0,0,0-.56-3.79c-.05-.16-.09-.32-.14-.48-.29-.91-.54-1.84-.74-2.78C287.87,244,287.85,243.75,287.8,243.53Z"/>
            <path class="cls-6" d="M300.84,242.91s0-.08,0-.16l-.15-.42c-.11-.28-.22-.56-.31-.84-.18-.6-.29-1.21-.42-1.81-.07-.32-.25-1.48-.07-.15l-.12-.83v-.06a5.21,5.21,0,0,0-1-3.15l-.06-.1a2.27,2.27,0,0,0-1-.76,2.4,2.4,0,0,0-2.21.13c.76-.47-.18,0-.48.22a5.41,5.41,0,0,0-.83.67,5.48,5.48,0,0,0-1.11,2.09,9.44,9.44,0,0,0-.51,2.47,2.89,2.89,0,0,0,0,.29,11.87,11.87,0,0,0,1.19,5.73l.12.24a10.46,10.46,0,0,0,2.73,3.74,7.2,7.2,0,0,0,3.85,1.59h.14c.3,0,.19,0-.33,0,.08.09.4.11.49.13a3.22,3.22,0,0,0,1.48,0l.32-.14h0a3.37,3.37,0,0,0,.55,0l.14,0h.14a4.24,4.24,0,0,0,.51,0,1.29,1.29,0,0,0,1.15-.77,1.26,1.26,0,0,0-.26-1.37,5.07,5.07,0,0,1-.61-.52l-.12-.15a2.48,2.48,0,0,0-.34-.94l-.28-.36a10.92,10.92,0,0,0-.87-2c-.3-.53-.65-1.05-1-1.57l-.08-.13c-.13-.21-.26-.42-.38-.64Zm3.2,7c0-.05,0-.11,0-.17h0Zm-1,1.59h0C303.43,251.16,303.45,251.15,303.05,251.46Zm.13-4.13-.1-.14S303.13,247.24,303.18,247.33Zm-1.09,4.38h0l-.09,0C301.76,251.66,301.79,251.65,302.09,251.71Zm-1.36-9a.85.85,0,0,1-.09-.25Z"/>
        </g>
        <g id="tail">
            <path class="cls-3" d="M395.19,65.24a6,6,0,0,0-4-2,8.17,8.17,0,0,0-5.09,2.19c-2.77,2.44-4,6.27-4.63,9.79-1.39,7.21-.53,17.52,7.08,21.06,8.2,3.81,15.62-3.8,17.46-11.32a27.42,27.42,0,0,0,.18-11.23c-.65-3.68-2.23-7.58-5-10.14a12.66,12.66,0,0,0-11.27-3.18c-4.18,1-6.79,4.4-8.17,8.25A35.36,35.36,0,0,0,380,79.85c-.06,3.71.18,7.83,1.55,11.32,1.67,4.26,5.22,7.4,10,7.3,4.29-.09,7.92-2.55,10.72-5.63,5-5.54,8.63-13.22,6.24-20.78a14.56,14.56,0,0,0-6.85-8.63,15.49,15.49,0,0,0-10.56-1.23C384,63.76,379,70,377.88,77.05s.46,15.53,6.56,19.88a9.85,9.85,0,0,0,10.82.34c3.14-2,5-5.28,6.19-8.7a31.33,31.33,0,0,0,1.95-10.79c0-4-1.17-8.45-4.14-11.25a8.35,8.35,0,0,0-12.11,1c-2.68,3.21-3.24,7.73-3.59,11.76a19.24,19.24,0,0,0,2.15,11.37,8.85,8.85,0,0,0,5.09,4.27,8,8,0,0,0,6.72-1.41,15.75,15.75,0,0,0,5.82-10.08c.64-3.82.44-8.28-1.87-11.55a8.52,8.52,0,0,0-11.9-2.22c-3.76,2.54-5.53,6.78-5.8,11.2-.26,4.09,1.06,9.29,4.91,11.38,4.78,2.6,9.84-1,11.61-5.49,1.41-3.55.82-7.57-.25-11.14-.72-2.41-1.54-5-4.23-5.78-3.26-1-5.94,1.36-6.93,4.27a22.91,22.91,0,0,0-1.05,6.14c-.12,2.44-.1,5.55,1.64,7.44,2.26,2.43,5.85,2,8-.3a10.46,10.46,0,0,0,2.59-5.31A12,12,0,0,0,397,71.56a4.5,4.5,0,0,0-7,.9c-2.56,5-3.27,12.49.95,16.84a4.19,4.19,0,0,0,5.81,0,5.62,5.62,0,0,0,1.57-2.44,4.52,4.52,0,0,0,.15-.61,2.86,2.86,0,0,0,.07-1.45c-.09-.59-.09-.64,0-.16.2-1.84-1.71-3.43-3.43-3.43a3.51,3.51,0,0,0-3.44,3.43l0,.33,1-2.43c-.67.52,1.07-.24.12-.11l5.06,2.87c-.09-.52-.1-.52,0,0a3.33,3.33,0,0,0-.31-1.56c-.11-.39-.26-.77-.36-1.16a11.93,11.93,0,0,1-.24-1.19c.15,1,0-.41,0-.62a13.37,13.37,0,0,1,.06-1.42c-.07.8,0-.11.09-.41s.23-.77.32-1.17.18-.5,0-.06c.11-.25.23-.49.36-.73l-7,.91c.16.16.31.32.45.49-.35-.46-.39-.49-.12-.08s.37,1.16.11.15c.09.32.19.64.28,1,.22.87,0-.86,0,.32,0,.16,0,.33,0,.5-.05.51,0,.45,0-.19.09.18-.22.81-.26,1,.26-1,0-.13-.1.15s-.23.39.12-.08c.45-.25.46-.28,0-.07l2.26-.61.56.07,2,1.14-.2-.23,1.15,2c-.34-.91,0,1-.12-.34,0-.3-.05-.61-.06-.91a19.24,19.24,0,0,1,.05-2.52c0-.15.17-1.11,0-.41.07-.38.14-.75.22-1.12s.2-.74.29-1.11l.13-.44a2.67,2.67,0,0,1-1.95,1.89h-2.37l.26.08-2-1.15c-.88-.76-.78-1.71-.52-.84.07.26.17.51.25.76.16.51.32,1,.46,1.54s.27,1,.38,1.57c.05.26.09.53.14.79-.18-1,0,.22,0,.38,0,.51,0,1,0,1.53,0-.86,0-.32,0-.07s-.13.48-.2.72c-.23.81-.07.12,0,0-.13.22-.27.45-.39.67.4-.71.23-.25,0-.09s-.36.33-.11.11.21-.2-.15,0c0-.07,1-.37.09-.11a1.93,1.93,0,0,1,1-.06,2.42,2.42,0,0,1,.8.44s.65.78.06.07c-.12-.15-.38-.8,0,.09-.09-.24-.18-.5-.25-.75s-.15-.57-.23-.86l-.09-.43c0,.38,0,.42,0,.09a18.88,18.88,0,0,1,0-2c0-.14.11-.86,0-.13q.07-.44.18-.87c.07-.29.16-.56.24-.85s.33-.84,0-.1c.11-.22.22-.44.35-.66s.65-.92.29-.47,1-1,.5-.53.17-.09.3-.17.8-.24.25-.14c-.78.14.74-.06-.14,0s.64.14-.18,0,.46.35-.14,0c-.32-.13-.29-.1.07.1l-.39-.27c.62.87-.25-.62,0,0,.09.2.22.41.33.6.31.53-.17-.7-.06-.1.05.23.14.45.2.67s.09.48.15.71c.18.68,0-.65,0,0s.08,1.24.05,1.86c0,.28,0,.55-.06.83.05-.8,0-.14,0,0-.12.55-.23,1.08-.4,1.61-.08.27-.18.53-.26.79.21-.69,0-.08,0,.08a18.86,18.86,0,0,1-1,1.8c.1-.16.58-.62,0,0-.17.18-.37.35-.54.54.45-.51.24-.19,0,0-.68.49-.11,0,.09,0-.73-.06-.05,0,.17,0a2,2,0,0,1,.9.24c.55.23.3.29,0,0,.63.71-.1-.18-.19-.34s-.26-.48-.38-.72c.08.16.26.79,0,0a13.71,13.71,0,0,1-.44-1.55c-.06-.26-.11-.53-.15-.79,0,.19.06.84,0,0,0-.62-.06-1.24-.05-1.86s0-1.25.1-1.87c0-.28.05-.56.08-.84s.14-.86,0,0c.19-1.15.36-2.3.65-3.42.07-.27.14-.53.23-.78s.38-.88.14-.41.18-.24.23-.35c.21-.56-.44.34,0,0,.11-.09.69-.57.21-.24s.58-.39-.08,0c-.46.3.12,0,.29-.06.38-.14-.61,0-.85,0,.74.1.1.06-.09,0-.73-.42-.26-.14-.07,0,.74.47-.08-.29.08.11a6.24,6.24,0,0,0,.38.66c.05.1.39.89.2.41s.09.32.13.43c.18.59.3,1.18.43,1.79-.17-.81,0-.16,0,0s0,.55.05.83c0,.56,0,1.11,0,1.67,0,.19-.17,1.81-.05.92-.1.7-.23,1.4-.38,2.09-.24,1.07-.51,2.14-.84,3.19-.14.44-.3.87-.45,1.3-.27.77,0,0,0-.09-.15.31-.29.63-.45.94s-.45.82-.7,1.2c-.12.19-.25.38-.39.56.1-.14.61-.66.07-.13-.15.15-.32.31-.46.47-.32.37,0,.31.17-.09a3.15,3.15,0,0,1-.53.34c-.61.44.49,0,.06,0a3.43,3.43,0,0,0-.61.16c-.59.22.83-.2.21-.06H390c-.51,0-.44,0,.21,0,0,0-.63-.21-.62-.17s1,.57.19.06l-.55-.34c.14.08.68.64.13.08-.2-.19-.41-.38-.6-.59s-.55-.68-.2-.21-.08-.14-.16-.26a12.52,12.52,0,0,1-.7-1.23c-.07-.13-.4-.81-.15-.27s0-.14-.1-.28c-.18-.51-.33-1-.47-1.56s-.24-1-.33-1.51c0-.25-.09-.51-.12-.76.13,1,0,.07,0-.17a20,20,0,0,1,0-3.28c0-.26,0-.51.08-.77-.12.92,0,.24,0,0,.11-.5.21-1,.35-1.49s.32-1,.48-1.44c-.27.8-.1.21,0,0,.17-.34.34-.68.53-1a13.18,13.18,0,0,1,.83-1.27c-.51.7.28-.28.45-.46a12.25,12.25,0,0,1,1-.9c-.84.68.51-.29.8-.44s1.48-.63.48-.29c.43-.14.85-.31,1.29-.43.11,0,1.31-.24,1.32-.29s-1.12.07-.18,0c.28,0,.55,0,.83,0s1.56.1.9,0,.06,0,.22.06l.8.21c.21.06.41.14.62.21-.16,0-.83-.44-.16,0l.57.32c.11.07.85.64.39.24s.13.14.23.24.32.37.5.52c.48.41-.36-.58,0,0,.13.21.28.4.4.61s.25.42.36.63.39.83.16.3.06.19.1.32a8.89,8.89,0,0,1,.26.88c.08.32.24,1.63.16.64,0,.49.08,1,.08,1.48,0,.3-.05.62,0,.92,0,.67.16-.76,0-.07s-.23,1.18-.4,1.77-.33,1-.51,1.52c.27-.74,0-.11,0,0s-.24.49-.36.72a24.73,24.73,0,0,1-2,3.09c.5-.69-.46.55-.57.68-.36.41-.72.82-1.1,1.21s-.77.76-1.17,1.13c-.62.57-.21.19-.05.07-.33.24-.67.46-1,.67l-.71.38c.2-.1.72-.21-.08,0l-.79.19c.22,0,.8,0,0,0-.27,0-.54,0-.81,0,.42,0,.45.2,0-.08.15.09.75.38,0,0s.18.29-.07-.06c-.08-.11-.6-.66-.23-.21s-.08-.15-.16-.27-.21-.43-.33-.63c-.32-.55.18.67,0,.05a32.89,32.89,0,0,1-.78-3.26c-.11-.78.06.56,0-.23,0-.31-.07-.62-.1-.94q-.07-.94-.12-1.89c-.05-1.34,0-2.68.05-4,0-.62.1-1.25.17-1.88.1-.93.06-.43,0-.22l.15-.94a24,24,0,0,1,.85-3.54c.08-.24.17-.47.25-.7-.29.81-.1.23,0,0,.23-.43.47-.84.74-1.25-.53.78.26-.2.52-.41-.72.57-.17.14,0,.09,1.12-.4-.9.26.23-.08.24-.08.82-.12-.16,0l.7,0c.24,0,.47,0,.71,0-.2,0-.9-.22-.13,0,.33.1,1.47.6.64.14l.64.34c.18.11,1,.78.28.12.38.35.75.71,1.11,1.09.12.12.48.65.05,0l.45.66c.28.46.52.93.76,1.41.07.15.25.76,0,.07.1.32.23.63.33,1a23.59,23.59,0,0,1,.74,3.12c0,.12.12.93.07.4s0,.29,0,.41c0,.66.08,1.31.08,2s0,1-.06,1.57c0,.26-.05.52-.07.78-.07.67.15-.59,0,0a29.15,29.15,0,0,1-.87,3.17c.25-.65-.27.52-.4.75a13.52,13.52,0,0,1-.82,1.3c.37-.51,0,0-.08.1l-.53.58-.58.54c.5-.44-.33.23-.46.31a7.55,7.55,0,0,1-.69.37c.55-.26,0,0-.13,0a5.87,5.87,0,0,1-.75.18c.67-.09,0,0-.11,0-.81,0-.21,0-.06,0l-.72-.19c.57.17.05,0-.09,0a6.57,6.57,0,0,1-.95-.59c.49.38-.52-.56-.61-.66.11.12.37.58-.12-.15-.15-.24-.3-.47-.44-.72a11,11,0,0,1-1.05-3,25.88,25.88,0,0,1,.71-13.55,4.83,4.83,0,0,1,1.21-2c.75-.69,1.73-.82,2.52-1.48l-.95.55a2.75,2.75,0,0,1,1.81-.18,1.31,1.31,0,0,0,1.26-2.17Z"/>
            <path class="cls-3" d="M402.05,69.58a2,2,0,0,0,1.79-.24,1.06,1.06,0,0,0,.47-1.16c-.22-1-.49-2-.77-3a9.31,9.31,0,0,0-2.24-3.07A14.93,14.93,0,0,0,395,58.05a19.32,19.32,0,0,0-14.68.84,3.64,3.64,0,0,0-1.51,4.59,3.75,3.75,0,0,0,4.34,2.13,23.6,23.6,0,0,1,6.78-.08l-1.86-6.87a6.7,6.7,0,0,1-.7.37c.26-.13.17-.11-.25,0-.25.07-.51.13-.77.18.25,0,.25,0,0,0A4,4,0,0,1,384,58.9l.88,6.76a4.92,4.92,0,0,1,2.25-.85c.64-.14-.45,0,.2,0,.27,0,.54,0,.81,0,.61,0,1.23,0,1.84,0a36.81,36.81,0,0,1,5.79,1c2.05.5,3.27.89,4.52,2.39-.28-.33.42.65.51.81l.36.67s.26.57.13.26a21.69,21.69,0,0,1,.84,2.87,22.9,22.9,0,0,1,.35,5.93,14.1,14.1,0,0,1-.33,2.57,28.51,28.51,0,0,1-.84,3.27,23.05,23.05,0,0,1-2.68,5.59c-.25.39-.5.77-.77,1.14-.08.12-.74,1-.46.64a30.55,30.55,0,0,1-2.22,2.47,23.88,23.88,0,0,1-4.89,3.9A29.81,29.81,0,0,1,387.2,100a18.27,18.27,0,0,1-2.7,1.12l2.94,7a42.67,42.67,0,0,0,13.64-15.38,3.85,3.85,0,0,0-1-4.93c-1.39-1-3.79-1.19-5,.3l-8.36,10.25a3.93,3.93,0,0,0,0,5.4,3.87,3.87,0,0,0,5.4,0,22.43,22.43,0,0,0,4.37-7,8.74,8.74,0,0,0,.31-3.6c-.08-1.21,0-2.4,0-3.6a1,1,0,0,0-1.9-.52,10.63,10.63,0,0,1-1.92,2.3,14.51,14.51,0,0,0-2.64,2.38c-1.29,1.72-2.15,2.93-3.63,4.63l5.4,5.4,8.36-10.25-6-4.63a35.26,35.26,0,0,1-10.9,12.64,3.86,3.86,0,0,0-1.56,4.77,3.79,3.79,0,0,0,4.51,2.21c10-3.59,18.19-11,21.75-21.14A30.79,30.79,0,0,0,409.36,71a17.62,17.62,0,0,0-2.88-6.9,13.89,13.89,0,0,0-7.31-5.1,41.72,41.72,0,0,0-8.78-1.65,15.11,15.11,0,0,0-9.25,1.89A3.74,3.74,0,0,0,382,66a12.09,12.09,0,0,0,9.78-1,3.77,3.77,0,0,0,1.7-4.17,3.87,3.87,0,0,0-3.56-2.7,29.48,29.48,0,0,0-8.74.36L384,65.23l.61-.28c-.35.15-.25.1,0,0,.48-.15.94-.32,1.42-.46s.85-.2,1.28-.29c.15,0,.9-.1.19,0q.33,0,.66-.06a18.7,18.7,0,0,1,2.8,0c.57,0-.5-.09.06,0l.66.1c.49.1,1,.21,1.46.34a22.23,22.23,0,0,1,2.51.81c-.39-.16.16.09.29.15a10.69,10.69,0,0,0,1.06.43c.35.12.67.23.81.3.84.4,1.53,1,2.33,1.46.4.24.89.26,1.3.5a7.85,7.85,0,0,1,1.09.91l-.27-1-.28.23a.61.61,0,0,0,0,1.17Z"/>
            <path class="cls-3" d="M380.82,66c.85-3.65,4.38-5.24,7.84-5a34.74,34.74,0,0,1,6,1.17,7.17,7.17,0,0,1,4.17,2.45,8.87,8.87,0,0,1,1.76,3.74,14.25,14.25,0,0,1,0,5.56,41.22,41.22,0,0,1-3.49,10.67c-1,2-2.42,4-3.07,6.13-.3,1-.58,2-.81,3a9.67,9.67,0,0,1-1.38,2.9c-.41.66.42,1.55,1.09,1.1,1.83-1.27,3.83-2.22,5.62-3.53,2.06-1.52,3.34-3.87,4.47-6.15a41.59,41.59,0,0,0,4.35-14.63c.44-4.89-.85-10.59-4.9-13.76a13.66,13.66,0,0,0-6.59-2.7,26.85,26.85,0,0,0-8-.36A10.27,10.27,0,0,0,381.14,60c-1.43,1.72-2.18,3.85-1.28,6,.17.41.84.53,1,0Z"/>
        </g>
        <g id="head">
            <path class="cls-3" d="M344.87,176.76c27.6-12.49,43.83-51.82,44.32-81.49.25-15.14-2.63-35-12.79-46.93-.53-.62-1.08-1.21-1.65-1.76A78.71,78.71,0,0,0,349.4,23.29,106.78,106.78,0,0,0,327,10.62C300.6-.38,281.55-1.26,253.44,1a869.61,869.61,0,0,0-100.58,14.2c-4.23.85-8.47,1.82-12.67,2.94-14.85,2.24-29.92,4-44.49,7.62a95.45,95.45,0,0,0-14.28,4.69,73.81,73.81,0,0,0-7.85,3.32,46.27,46.27,0,0,0-4.46,1.28A44.37,44.37,0,0,0,57,41.5c-9.36,5-16.16,14.63-20.67,24.53-3.23,7.09-5.91,14.5-10.09,21.12S16.1,98.75,11.11,104.59A46.18,46.18,0,0,0,2.87,118.2a35.48,35.48,0,0,0-1.55,4.11,31.3,31.3,0,0,0-1,4.82l-.06.43-.06.65c-.65,6.4.88,13,3.43,18.83A59.11,59.11,0,0,0,28.32,174.4a75.67,75.67,0,0,0,10.22,6.54,80.82,80.82,0,0,0,15.69,7c1.54.49,3.2,1.05,4.94,1.58a173,173,0,0,0,22.44,8.16c25.51,7.31,52.33,9.29,78.76,9.1a720.35,720.35,0,0,0,83.68-5.45c26.33-3.31,51.53-10.49,74.86-23.31Z"/>
            <g id="mouth">
                <path class="cls-7" d="M41.61,159.37c1.2-.53,4.12-8.14,5.72-6.91a4.45,4.45,0,0,1,1.05,1.78c.39.88.75,1.76,1.1,2.65s.69,1.84,1,2.77a10,10,0,0,0,1.2,2.73.85.85,0,0,0,1.57-.42c.07-1.77-.81-3.55-1.43-5.18a38.92,38.92,0,0,0-2-4.69c-.75-1.36-2.18-2.4-3.78-1.81s-2.42,2.12-3.23,3.43a16.62,16.62,0,0,0-1.39,2.64,8.93,8.93,0,0,0-.45,1.32,2.44,2.44,0,0,0-.12,1.38.53.53,0,0,0,.76.31Z"/>
            </g>
            <g id="right_eye" class="eye" data-name="right eye">
                <circle class="cls-7" cx="90.64" cy="95.18" r="5.49"/>
            </g>
            <g id="left_eye" class="eye" data-name="left eye">
                <circle class="cls-7" cx="45.48" cy="88.12" r="4.97"/>
            </g>
            <g id="nose">
                <path class="cls-1" d="M53.09,128.41c.18-.27.18-.28,0,0Z"/>
                <path d="M64.59,128.17a3.73,3.73,0,0,0-1.68-1.78A5,5,0,0,0,60.17,125a12.87,12.87,0,0,0-1.46-.83q-2.26-1.06-4.61-1.92a49.34,49.34,0,0,0-9.43-2.37c-2.55-.38-5.63-.41-7.05,2.2s0,6,1.27,8.27c2.51,4.57,8.12,8.93,13.61,8.35a9.22,9.22,0,0,0,4-1.47,28.26,28.26,0,0,0,2.62-1.12C62,134.77,66.3,132,64.59,128.17Zm-11.5.24h0C53.27,128.13,53.27,128.14,53.09,128.41Z"/>
            </g>
        </g>
        <g id="front_right_leg" class="leg" data-name="front right leg">
            <path class="cls-1" d="M144.59,276.87v-.16h0C144.6,276.76,144.59,276.82,144.59,276.87Z"/>
            <path class="cls-1" d="M143.6,278.46c.4-.31.38-.3,0,0Z"/>
            <path class="cls-1" d="M142.67,278.71h0c-.31-.06-.33,0-.07,0Z"/>
            <path class="cls-1" d="M113.44,277.07a.88.88,0,0,0,0,.23Z"/>
            <path class="cls-1" d="M143.63,274.19l.1.14C143.68,274.24,143.65,274.18,143.63,274.19Z"/>
            <path class="cls-3" d="M121,268.83a7.55,7.55,0,0,1,1.45-3.16,3.79,3.79,0,0,1,2.24-1.57,1.7,1.7,0,0,1,1.11-.06,2,2,0,0,1,.9.66,2.35,2.35,0,0,1,.78,1.23c.08.3,0,.26-.11-.11a6.86,6.86,0,0,1,.32.79,7.89,7.89,0,0,1,.37,1.8,6.26,6.26,0,0,1,.14,1.07,1.87,1.87,0,0,1,0,.25,35.51,35.51,0,0,0,4.86-2.52,9.87,9.87,0,0,1,.51-2.47,5.62,5.62,0,0,1,1.11-2.09,5,5,0,0,1,.84-.67c.29-.19,1.24-.7.47-.22a2.4,2.4,0,0,1,2.21-.13,2.27,2.27,0,0,1,1,.76l.59-.59q1.29-1.53,2.61-3a34.39,34.39,0,0,0,4.75-8.36c2.14-5.45,3.23-11.23,4.28-17q3.52-19.11,7-38.21c.38-2,3-2.27,4.25-1-.93-9.15-3.14-18.18-8.92-25.57a28.78,28.78,0,0,0-27.19-11c-9.73,1.24-19.9,5.32-26.88,12.39-7.51,7.62-9.64,18.32-10.22,28.65q-.2,3.41-.09,6.81C87.8,226.56,91.76,253,107.9,266.14a6.36,6.36,0,0,1,.64-1.06,4.57,4.57,0,0,1,1.31-1.28,3.21,3.21,0,0,1,1.77-.35h0a.51.51,0,0,1,.84.49V264a.6.6,0,0,0,.3.13,2.4,2.4,0,0,1,.6,1,4.81,4.81,0,0,1,.22,1.19,14.83,14.83,0,0,1,.08,1.63c0,.67,0,1.33,0,2a35.73,35.73,0,0,0,7.13,2.85A13.61,13.61,0,0,1,121,268.83Z"/>
            <path class="cls-3" d="M112.26,263.61a.43.43,0,0,0,.06.22Z"/>
            <path class="cls-3" d="M148,266.56c-.52.62-1.07,1.21-1.64,1.8q.81-.57,1.59-1.2a36.53,36.53,0,0,0,2.28-3.48C149.48,264.66,148.74,265.63,148,266.56Z"/>
            <path class="cls-4" d="M141.19,269.46a.85.85,0,0,0,.09.25Z"/>
            <path class="cls-4" d="M163.14,199.59q-.15-2.68-.42-5.37c-1.24-1.25-3.87-1-4.25,1q-3.51,19.11-7,38.21c-1.05,5.73-2.14,11.51-4.28,17a34.39,34.39,0,0,1-4.75,8.36q-1.32,1.5-2.61,3l-.59.59.07.09a5.28,5.28,0,0,1,1,3.16.11.11,0,0,0,0,.06c0,.27.07.55.11.82-.18-1.32,0-.16.07.15a18.32,18.32,0,0,0,.43,1.81c.09.29.19.57.3.85l.15.42a.9.9,0,0,1,0,.16c.09.15.18.28.22.36s.25.43.39.64a31.28,31.28,0,0,0,4.31-2.55c.57-.59,1.12-1.18,1.64-1.8.79-.93,1.53-1.9,2.23-2.88a36.53,36.53,0,0,1-2.28,3.48,34.61,34.61,0,0,0,9-10.88c6.24-11.84,7-26.26,6.22-39.69A139.76,139.76,0,0,0,163.14,199.59Z"/>
            <path class="cls-4" d="M133.06,267.5c0-.1,0-.2,0-.29a35.51,35.51,0,0,1-4.86,2.52c0,.09,0,.18,0,.27s.05.35.07.53.07.46.11.68c.2.94.45,1.86.74,2.78a28.68,28.68,0,0,0,5.17-.52l-.12-.25A11.81,11.81,0,0,1,133.06,267.5Z"/>
            <path class="cls-6" d="M113.57,266.33a4.81,4.81,0,0,0-.22-1.19,2.4,2.4,0,0,0-.6-1,.6.6,0,0,1-.3-.13v-.05a.51.51,0,0,0-.84-.49h0a3.21,3.21,0,0,0-1.77.35,4.57,4.57,0,0,0-1.31,1.28,6.36,6.36,0,0,0-.64,1.06,11.88,11.88,0,0,0-.58,1.43,11.7,11.7,0,0,0-.2,5.7,7.26,7.26,0,0,0,1.06,2.46c.16.25.38.47.54.71a2.41,2.41,0,0,0,.2.3l.29.33c.09.11.16.23.25.34a17.92,17.92,0,0,0,1.75,1.74,5.24,5.24,0,0,0,1.75,1.36.9.9,0,0,0,1.13-.86,16.12,16.12,0,0,0-.61-2.13s0-.07,0-.1a4.36,4.36,0,0,0-.06-.44,3.94,3.94,0,0,0,0-.66,4.3,4.3,0,0,0-.07-.62c0-.36,0-1.06,0-.45,0,.21.16-2,.1-.86,0-.43.12-.86.15-1.3,0-.6,0-1.19,0-1.79s0-.89,0-1.34c0-.67,0-1.33,0-2A14.83,14.83,0,0,0,113.57,266.33Zm-.13,10.74v.23A.88.88,0,0,1,113.44,277.07Zm-1.12-13.24a.43.43,0,0,1-.06-.22Z"/>
            <path class="cls-6" d="M128.35,270.53c0-.18,0-.35-.07-.53s0-.18,0-.27a1.87,1.87,0,0,0,0-.25,6.26,6.26,0,0,0-.14-1.07,7.89,7.89,0,0,0-.37-1.8,6.86,6.86,0,0,0-.32-.79c.15.37.19.41.11.11a2.35,2.35,0,0,0-.78-1.23,2,2,0,0,0-.9-.66,1.7,1.7,0,0,0-1.11.06,3.79,3.79,0,0,0-2.24,1.57,7.55,7.55,0,0,0-1.45,3.16,14.35,14.35,0,0,0,.16,6.2c.55,2.12,1.5,4.42,3.51,5.52a4.84,4.84,0,0,0,1.06.49c-.22-.16-.26-.19-.1-.09a1.33,1.33,0,0,0,.42.19c.1.05.35.14.43.17l.33.17a7,7,0,0,0,2.48.78,1.25,1.25,0,0,0,1.19-1.57,4.54,4.54,0,0,0-.29-.88c0-.08,0-.16,0-.27l-.13-.4A1.06,1.06,0,0,1,130,279a3.45,3.45,0,0,0-.06-.69,8.32,8.32,0,0,0-.56-3.8c-.05-.15-.09-.31-.14-.47-.29-.92-.54-1.84-.74-2.78C128.42,271,128.4,270.75,128.35,270.53Z"/>
            <path class="cls-6" d="M141.39,269.91a.9.9,0,0,0,0-.16l-.15-.42c-.11-.28-.21-.56-.3-.85a18.32,18.32,0,0,1-.43-1.81c-.07-.31-.25-1.47-.07-.15,0-.27-.08-.55-.11-.82a.11.11,0,0,1,0-.06,5.28,5.28,0,0,0-1-3.16l-.07-.09a2.27,2.27,0,0,0-1-.76,2.4,2.4,0,0,0-2.21.13c.77-.48-.18,0-.47.22a5,5,0,0,0-.84.67,5.62,5.62,0,0,0-1.11,2.09,9.87,9.87,0,0,0-.51,2.47c0,.09,0,.19,0,.29a11.81,11.81,0,0,0,1.19,5.72l.12.25a10.45,10.45,0,0,0,2.74,3.74,7,7,0,0,0,3.84,1.58l.14,0c.3,0,.19,0-.32,0,.07.09.39.11.49.12a2.93,2.93,0,0,0,1.47,0l.32-.13h0a4.87,4.87,0,0,0,.54,0l.14,0h.14a4.55,4.55,0,0,0,.52,0,1.25,1.25,0,0,0,1.14-.77,1.23,1.23,0,0,0-.26-1.36,5.15,5.15,0,0,1-.61-.53l-.12-.14a2.52,2.52,0,0,0-.34-.95,4.28,4.28,0,0,0-.28-.35,10.59,10.59,0,0,0-.86-2c-.31-.54-.66-1.05-1-1.57a.83.83,0,0,1-.07-.13c-.14-.21-.27-.42-.39-.64S141.48,270.06,141.39,269.91Zm3.2,7c0-.05,0-.11,0-.17h0Zm-1,1.59h0C144,278.16,144,278.15,143.6,278.46Zm.13-4.13-.1-.14S143.68,274.24,143.73,274.33Zm-1.08,4.38h0l-.09,0C142.32,278.66,142.34,278.65,142.65,278.71Zm-1.37-9a.85.85,0,0,1-.09-.25Z"/>
        </g>
        <g id="back_right_leg" class="leg" data-name="back right leg">
            <path class="cls-1" d="M356.55,253.05v-.17h0C356.56,252.94,356.55,253,356.55,253.05Z"/>
            <path class="cls-1" d="M355.56,254.63c.39-.31.37-.3,0,0Z"/>
            <path class="cls-1" d="M354.63,254.88h0c-.3-.06-.33,0-.07,0Z"/>
            <path class="cls-1" d="M325.39,253.24a1.48,1.48,0,0,0,0,.23C325.4,253.37,325.39,253.3,325.39,253.24Z"/>
            <path class="cls-1" d="M355.59,250.36l.1.14C355.64,250.41,355.6,250.35,355.59,250.36Z"/>
            <path class="cls-3" d="M333,245a7.37,7.37,0,0,1,1.45-3.16,3.74,3.74,0,0,1,2.24-1.57,1.64,1.64,0,0,1,1.11-.06,1.84,1.84,0,0,1,.89.65,2.33,2.33,0,0,1,.78,1.23c.09.3.05.27-.11-.11a6,6,0,0,1,.33.79,8.55,8.55,0,0,1,.37,1.81,7.09,7.09,0,0,1,.14,1.07,2,2,0,0,0,0,.24,35.39,35.39,0,0,0,4.85-2.52,9.88,9.88,0,0,1,.52-2.47,4.29,4.29,0,0,1,1.94-2.76c.3-.19,1.24-.69.48-.22a2.4,2.4,0,0,1,2.21-.12,2.25,2.25,0,0,1,1,.75l.59-.59c.86-1,1.72-2,2.61-3a34.6,34.6,0,0,0,4.75-8.37c2.14-5.45,3.22-11.23,4.28-17q3.51-19.1,7-38.2c.37-2,3-2.28,4.25-1-.93-9.15-3.14-18.19-8.92-25.58a28.79,28.79,0,0,0-27.2-11c-9.72,1.25-19.89,5.32-26.87,12.39-7.51,7.62-9.64,18.33-10.22,28.65q-.2,3.4-.09,6.81c-1.63,21.06,2.34,47.49,18.48,60.65a6.18,6.18,0,0,1,.64-1.07,4.41,4.41,0,0,1,1.31-1.27,3.13,3.13,0,0,1,1.77-.36h0a.5.5,0,0,1,.83.48v.05a.81.81,0,0,0,.31.14,2.29,2.29,0,0,1,.6,1,5.21,5.21,0,0,1,.22,1.19,14.53,14.53,0,0,1,.08,1.62v2a36.41,36.41,0,0,0,7.14,2.84A13.19,13.19,0,0,1,333,245Z"/>
            <path class="cls-3" d="M324.22,239.79a.46.46,0,0,0,0,.21Z"/>
            <path class="cls-3" d="M359.91,242.74c-.53.61-1.08,1.21-1.64,1.79.54-.38,1.07-.78,1.59-1.19a38.73,38.73,0,0,0,2.28-3.49C361.44,240.84,360.7,241.81,359.91,242.74Z"/>
            <path class="cls-4" d="M353.15,245.63a.76.76,0,0,0,.09.25A2,2,0,0,1,353.15,245.63Z"/>
            <path class="cls-4" d="M375.1,175.76c-.1-1.78-.24-3.58-.42-5.36-1.24-1.26-3.88-1-4.25,1q-3.51,19.1-7,38.2c-1.06,5.73-2.14,11.51-4.28,17a34.6,34.6,0,0,1-4.75,8.37c-.89,1-1.75,2-2.61,3l-.59.59.06.1a5.21,5.21,0,0,1,1,3.15v.06c0,.28.08.55.11.83-.17-1.33,0-.17.07.15.14.61.25,1.21.43,1.81.09.28.2.56.31.84l.15.42a1.66,1.66,0,0,0,.05.16l.22.36c.12.22.25.43.38.64a31.39,31.39,0,0,0,4.32-2.55c.56-.58,1.11-1.18,1.64-1.79.79-.93,1.53-1.9,2.23-2.89a38.73,38.73,0,0,1-2.28,3.49,34.65,34.65,0,0,0,9-10.89c6.24-11.84,7-26.25,6.21-39.69A139.76,139.76,0,0,0,375.1,175.76Z"/>
            <path class="cls-4" d="M345,243.67l0-.29a35.39,35.39,0,0,1-4.85,2.52c0,.09,0,.18,0,.28l.06.52c.06.22.08.46.12.68.2.94.45,1.87.74,2.78a27.8,27.8,0,0,0,5.17-.52l-.12-.24A11.85,11.85,0,0,1,345,243.67Z"/>
            <path class="cls-6" d="M325.53,242.51a5.21,5.21,0,0,0-.22-1.19,2.29,2.29,0,0,0-.6-1,.81.81,0,0,1-.31-.14v-.05a.5.5,0,0,0-.83-.48h0a3.13,3.13,0,0,0-1.77.36,4.41,4.41,0,0,0-1.31,1.27,6.18,6.18,0,0,0-.64,1.07,11.88,11.88,0,0,0-.58,1.43,11.43,11.43,0,0,0-.2,5.69,7.18,7.18,0,0,0,1.06,2.46c.16.25.37.47.54.72l.19.3.29.32c.09.11.17.23.26.35a19.12,19.12,0,0,0,1.75,1.74,5.24,5.24,0,0,0,1.75,1.35.88.88,0,0,0,1.12-.85,15.79,15.79,0,0,0-.6-2.14s0-.07,0-.1a3.17,3.17,0,0,0-.05-.43,4,4,0,0,0,0-.66,4,4,0,0,0-.08-.63c0-.35,0-1.06,0-.45,0,.21.17-2,.11-.85,0-.43.11-.87.14-1.3,0-.6,0-1.2,0-1.8,0-.44,0-.89,0-1.33v-2A14.53,14.53,0,0,0,325.53,242.51Zm-.14,10.73c0,.06,0,.13,0,.23A1.48,1.48,0,0,1,325.39,253.24ZM324.27,240a.46.46,0,0,1,0-.21Z"/>
            <path class="cls-6" d="M340.3,246.7l-.06-.52c0-.1,0-.19,0-.28a2,2,0,0,1,0-.24,7.09,7.09,0,0,0-.14-1.07,8.55,8.55,0,0,0-.37-1.81,6,6,0,0,0-.33-.79c.16.38.2.41.11.11a2.33,2.33,0,0,0-.78-1.23,1.84,1.84,0,0,0-.89-.65,1.64,1.64,0,0,0-1.11.06,3.74,3.74,0,0,0-2.24,1.57A7.37,7.37,0,0,0,333,245a13.19,13.19,0,0,0-.21,4,13.53,13.53,0,0,0,.36,2.22c.56,2.12,1.51,4.42,3.52,5.52a4.09,4.09,0,0,0,1.06.49c-.23-.16-.26-.18-.11-.09a1.69,1.69,0,0,0,.43.2l.43.16.33.18a7,7,0,0,0,2.48.77,1.25,1.25,0,0,0,1.19-1.56,4.06,4.06,0,0,0-.3-.89c0-.07,0-.15,0-.27s-.08-.26-.13-.39l-.06-.2a2.45,2.45,0,0,0-.06-.69,8.12,8.12,0,0,0-.55-3.79c-.05-.16-.09-.32-.14-.48-.29-.91-.54-1.84-.74-2.78C340.38,247.16,340.36,246.92,340.3,246.7Z"/>
            <path class="cls-6" d="M353.35,246.08a1.66,1.66,0,0,1-.05-.16l-.15-.42c-.11-.28-.22-.56-.31-.84-.18-.6-.29-1.2-.43-1.81-.06-.32-.24-1.48-.07-.15,0-.28-.07-.55-.11-.83v-.06a5.21,5.21,0,0,0-1-3.15l-.06-.1a2.25,2.25,0,0,0-1-.75,2.4,2.4,0,0,0-2.21.12c.76-.47-.18,0-.48.22a4.29,4.29,0,0,0-1.94,2.76,9.88,9.88,0,0,0-.52,2.47l0,.29a11.85,11.85,0,0,0,1.19,5.73l.12.24a10.46,10.46,0,0,0,2.73,3.74,7,7,0,0,0,3.85,1.59l.14,0-.33,0c.08.09.4.11.49.13a3,3,0,0,0,1.47,0l.33-.14h0a3.37,3.37,0,0,0,.55,0l.14,0h.14a4.36,4.36,0,0,0,.51,0,1.26,1.26,0,0,0,1.14-.77,1.24,1.24,0,0,0-.25-1.37,5.07,5.07,0,0,1-.61-.52,1.58,1.58,0,0,1-.12-.15,2.66,2.66,0,0,0-.34-.94l-.28-.36a12,12,0,0,0-.87-2c-.31-.53-.66-1.05-1-1.57l-.08-.13c-.13-.21-.26-.42-.38-.64Zm3.2,7c0-.06,0-.11,0-.17h0Zm-1,1.58h0C355.93,254.33,356,254.32,355.56,254.63Zm.13-4.13-.1-.14S355.64,250.41,355.69,250.5Zm-1.09,4.38h0l-.1,0C354.27,254.83,354.3,254.82,354.6,254.88Zm-1.36-9a.76.76,0,0,1-.09-.25A2,2,0,0,0,353.24,245.88Z"/>
        </g>
        <g id="ears">
            <path class="cls-3" d="M44.18,26.19c-7.48-1-10,7.09-9.15,13,.7,4.73,2.69,9.54,7,12,5.31,3,11.94.74,15.18-4.18,3.41-5.16,2.56-11.36-.22-16.61-2.89-5.44-8.59-9.81-14.71-6-5.46,3.38-6.78,10.72-5.74,16.6,1,5.69,4.84,11.37,11.18,11.29,5.71-.07,10.51-4.84,12-10.11a16.31,16.31,0,0,0-2.27-13.88c-3.58-5-9.91-7.11-15.21-3.41-8.64,6-9.86,20.84-.49,26.85,8.8,5.65,21.78.16,22.33-10.67.3-5.76-3.49-12.46-7.75-16.15-5-4.34-12-1.79-16.27,2.28-4.72,4.49-6.76,11.57-4.44,17.75a14.54,14.54,0,0,0,14.41,9.74c6.06-.41,12.48-5.33,12.48-11.84,0-9-14.15-9.22-13.77-.09.33,7.9,12.67,7.94,12.33,0l0-.51-3,5.32.5-.34-4.75.62.59.11-3.69-2.83.37.84-.62-4.75c-.32,1.95-2.45,1.26-3.15-.31-1-2.18,1.5-6.34,3.08-5.69l-2.72-1.58c1.45,1.24,5.91,6.24,3.42,7.8s-3.82-1.55-3.43-3.5c.12-.61,1.13-2,1.12-2.49l.27-.23c.74-.65.12-.69-1.84-.13A9.44,9.44,0,0,1,48,38.32a11.5,11.5,0,0,0-.59,1.35l-.3.29q3.15,1.93,1.94.16c.14-.86-.6-2.31-.54-3.34A7.21,7.21,0,0,1,49,34.69c.15,0,.11.09-.12.31H45.57l-.5-.58a17.94,17.94,0,0,1,1,1.61,9.06,9.06,0,0,1,.9,2,13,13,0,0,1,.23,2.23s1,.06.91.24a2.23,2.23,0,0,1-.38-.89c-.16-.61-.31-1.26-.5-1.86-.47-1.47.21-1.35-.41-.86L44.1,38.46l.08,0c3.31.43,6.17-3.14,6.17-6.16,0-3.69-2.85-5.73-6.17-6.16Z"/>
            <path class="cls-3" d="M142.4,63.42c1.43-1.78,5.72-7.76,4.24-15.41a15.53,15.53,0,0,0-16.59-13c-9.49-.44-18.77,6.92-19.26,16.86"/>
            <path class="cls-2" d="M143.71,63.32a20.65,20.65,0,0,0,4.6-10.79,17,17,0,0,0-5.18-14c-3.52-3.25-7.85-4.18-12.49-4.13A23.14,23.14,0,0,0,117,38.63a18.25,18.25,0,0,0-7.65,13.62c0,.47,2.84.12,2.9-.78a17.11,17.11,0,0,1,5.62-11.58,16.93,16.93,0,0,1,5.36-3.33,18,18,0,0,1,6.21-.94,15.09,15.09,0,0,1,11,3.89,16.66,16.66,0,0,1,5.09,12.63,19.63,19.63,0,0,1-4.41,11.37c-.6.74,2.18.38,2.63-.19Z"/>
        </g>
    </g>
</svg>
