<?xml version="1.0" encoding="utf-8"?>
<!-- Generator: Adobe Illustrator 24.1.0, SVG Export Plug-In . SVG Version: 6.00 Build 0)  -->
<svg version="1.1" id="Layer_1" xmlns="http://www.w3.org/2000/svg" xmlns:xlink="http://www.w3.org/1999/xlink" x="0px" y="0px"
	 viewBox="0 0 1920 1080" style="enable-background:new 0 0 1920 1080;" xml:space="preserve">
<style type="text/css">
	.st0{fill:#80D0FF;}
	.st1{fill:#FFFFFF;}
</style>
<g>
	<path class="st0" d="M1630.67,721.18c-3.64-1.69-7.69-2.64-11.97-2.64c-4.28,0-8.33,0.95-11.97,2.64
		c-2.89-6.21-9.18-10.53-16.48-10.53c-0.69,0-1.38,0.04-2.05,0.12c-3.44-10.93-10.97-20.03-20.79-25.53
		c3.03-8.6,4.68-17.84,4.68-27.47c0-45.7-37.05-82.74-82.74-82.74c-4.13,0-8.2,0.31-12.17,0.89c-0.96-14.27-7.27-27.06-16.95-36.4
		c0.97-5.08,1.49-10.32,1.49-15.68c0-45.7-37.05-82.74-82.74-82.74c-2.58,0-5.12,0.12-7.64,0.35
		c-18.41-52.11-68.09-89.44-126.5-89.44c-58.29,0-107.89,37.19-126.39,89.13c-0.84-0.03-1.69-0.04-2.54-0.04
		c-45.7,0-82.74,37.05-82.74,82.74c-29.49,0-53.64,22.85-55.73,51.81c-2.96-0.6-6.02-0.92-9.16-0.92c-13.53,0-25.67,5.9-34.02,15.27
		c-8.45-18.52-27.11-31.39-48.79-31.39c-6.91,0-13.51,1.32-19.57,3.7c-9.35-13.72-25.1-22.73-42.96-22.73
		c-28.36,0-51.4,22.74-51.93,50.98c-33.59,8.09-58.84,37.55-60.58,73.19c-7.3-3.8-15.59-5.97-24.39-5.97
		c-10.32,0-19.94,2.97-28.08,8.08c0-0.01,0-0.02,0-0.03c0-29.21-23.68-52.89-52.89-52.89c-25.47,0-46.73,18.01-51.76,41.98
		c-6.59-1.84-13.54-2.83-20.73-2.83c-30.94,0-57.6,18.31-69.74,44.68c-6.8-5.21-15.3-8.31-24.52-8.31
		c-12.85,0-24.29,6.01-31.68,15.37c-4.33-2.56-9.37-4.03-14.76-4.03c-11.58,0-21.58,6.78-26.24,16.59
		c-4.72-1.94-9.9-3.02-15.32-3.02c-4.42,0-8.68,0.72-12.66,2.04c-5.09-11.11-16.3-18.82-29.32-18.82
		c-13.85,0-25.65,8.73-30.22,20.98c-5.6-2.91-11.96-4.56-18.71-4.56c-6.64,0-12.91,1.6-18.44,4.43c-3.44-4.52-8.88-7.45-15.01-7.45
		c-10.41,0-18.85,8.44-18.85,18.85h20.11h17.59h31.29h15.51h27h22h22.25h19.21h15.9h22.96h34.93h22.85h130.64h27.03h99.37h3.42
		h101.05h606.74h54.35h30.47h40.33H1590h6.8h11.61h20.57h11.61C1637.91,725.59,1634.52,722.97,1630.67,721.18z"/>
	<path class="st1" d="M1320.9,428.08c0-12.86-3.2-24.97-8.83-35.6c-12.77-24.08-38.09-40.48-67.25-40.48
		c-58.29,0-107.89,37.19-126.39,89.13c-0.84-0.03-1.69-0.04-2.54-0.04c-45.7,0-82.74,37.05-82.74,82.74
		c-29.49,0-53.64,22.85-55.73,51.81c-2.96-0.6-6.02-0.92-9.16-0.92c-13.48,0-25.58,5.86-33.92,15.16v0.11
		c3.09,6.77,4.82,14.29,4.82,22.22c0,6.65-1.22,13.01-3.44,18.89c6.21,14.82,20.85,25.22,37.92,25.22
		c19.12,0,35.18-13.05,39.78-30.73c3.87,3.74,9.13,6.05,14.94,6.05c9.19,0,17.02-5.77,20.09-13.88
		c12.63,8.75,27.95,13.88,44.47,13.88c38.87,0,71.11-28.37,77.16-65.53c5.55,2.17,11.58,3.38,17.9,3.38
		c19.55,0,36.44-11.41,44.37-27.93c17.61,6.82,38.36,3.14,52.58-11.08c12.91-12.91,17.13-31.19,12.69-47.64
		C1311.98,469.01,1320.9,449.59,1320.9,428.08z"/>
	<path class="st1" d="M874.88,591.51c0-10.83-3.32-20.89-8.99-29.22v0c-9.35-13.72-25.1-22.73-42.96-22.73
		c-28.36,0-51.4,22.74-51.93,50.98c-33.59,8.09-58.84,37.55-60.58,73.19c-7.3-3.8-15.59-5.97-24.39-5.97
		c-10.32,0-19.94,2.97-28.08,8.08c0-0.01,0-0.02,0-0.03c0-29.21-23.68-52.89-52.89-52.89c-25.47,0-46.73,18.01-51.76,41.98
		c-6.59-1.84-13.54-2.83-20.72-2.83c-30.94,0-57.6,18.31-69.74,44.68c-6.8-5.21-15.3-8.31-24.52-8.31
		c-12.85,0-24.29,6.01-31.68,15.37c-4.33-2.56-9.37-4.03-14.76-4.03c-11.58,0-21.58,6.78-26.24,16.59
		c-4.72-1.94-9.9-3.02-15.32-3.02c-4.42,0-8.68,0.72-12.66,2.04c-5.09-11.11-16.3-18.82-29.32-18.82
		c-13.85,0-25.65,8.73-30.22,20.98c-5.6-2.91-11.96-4.56-18.71-4.56c-6.64,0-12.91,1.6-18.44,4.43c-3.44-4.52-8.88-7.45-15.01-7.45
		c-10.41,0-18.85,8.44-18.85,18.85h20.11h17.59h31.29h15.51h27h22h22.25h19.21h15.9h22.96h34.93h22.85h130.64h2.55
		c4.86-4.26,8.71-9.64,11.14-15.75c4.46,1.66,9.29,2.58,14.34,2.58c6.79,0,13.19-1.66,18.83-4.57c4.15,2.88,9.19,4.57,14.63,4.57
		c10.81,0,20.06-6.68,23.86-16.13c4.63,6.75,12.4,11.17,21.2,11.17c10.9,0,20.22-6.79,23.95-16.38
		c13.95-2.96,25.29-12.99,30.08-26.17c4.53,3.99,10.47,6.41,16.98,6.41c6.76,0,12.9-2.61,17.48-6.88c6.43,4.19,14.1,6.63,22.34,6.63
		c13.87,0,26.13-6.9,33.55-17.44c2.41-3.43,4.32-7.24,5.6-11.34c1.2-3.86,1.85-7.97,1.85-12.23c0-4.34-0.68-8.51-1.93-12.44
		C871.52,612.52,874.88,602.41,874.88,591.51z"/>
</g>
</svg>
