<?xml version="1.0" encoding="utf-8"?>
<!-- Generator: Adobe Illustrator 24.1.0, SVG Export Plug-In . SVG Version: 6.00 Build 0)  -->
<svg version="1.1" id="Layer_1" xmlns="http://www.w3.org/2000/svg" xmlns:xlink="http://www.w3.org/1999/xlink" x="0px" y="0px"
	 viewBox="0 0 1920 1080" style="enable-background:new 0 0 1920 1080;" xml:space="preserve">
<style type="text/css">
	.st0{fill:#80D0FF;}
	.st1{fill:#FFFFFF;}
</style>
<g>
	<path class="st0" d="M1319.14,562.09c-6.79,0-12.83,3.24-16.65,8.26c-6.14-3.13-13.1-4.91-20.47-4.91
		c-7.49,0-14.55,1.84-20.76,5.06c-4.38-11.76-14.77-20.58-27.43-22.76c-7.73-12.51-19.45-22.3-33.39-27.58
		c1.05-4.46,1.6-9.1,1.6-13.88c0-33.38-27.06-60.43-60.43-60.43c-8.49,0-16.58,1.76-23.91,4.92c-4.12-3.23-9.08-5.45-14.5-6.27
		c-0.84-5.46-2.43-10.68-4.65-15.55c-9.37-20.55-30.08-34.83-54.14-34.83c-7.67,0-14.99,1.47-21.72,4.11
		C1012.32,383,994.85,373,975.03,373c-31.47,0-57.04,25.23-57.62,56.56c-37.27,8.98-65.29,41.67-67.22,81.21
		c-8.1-4.22-17.3-6.62-27.07-6.62c-11.45,0-22.13,3.29-31.16,8.96c0-0.01,0-0.02,0-0.03c0-32.41-26.27-58.68-58.68-58.68
		c-28.26,0-51.85,19.98-57.43,46.58c-7.32-2.05-15.03-3.15-23-3.15c-34.33,0-63.91,20.32-77.38,49.58
		c-7.54-5.78-16.97-9.22-27.21-9.22c-14.26,0-26.95,6.67-35.16,17.05c-4.8-2.84-10.39-4.47-16.37-4.47
		c-12.85,0-23.94,7.53-29.11,18.41c-1.99,4.19-3.1,8.87-3.1,13.81h21.31h17.64h25.48h38.76h25.35h144.95H768h110.26h3.79h74.59
		h37.54h115.25h41.35h65.56h27.47h2.49h17.2h34.72h19.52h22.31C1340.05,571.45,1330.69,562.09,1319.14,562.09z"/>
	<g>
		<path class="st1" d="M485.84,583h17.64h25.48h38.76h25.35h144.95h2.83c5.39-4.73,9.67-10.7,12.36-17.48
			c4.95,1.84,10.31,2.86,15.91,2.86c7.53,0,14.63-1.84,20.9-5.07c4.61,3.2,10.2,5.07,16.23,5.07c12,0,22.26-7.41,26.47-17.9
			c5.14,7.48,13.76,12.4,23.52,12.4c12.1,0,22.43-7.54,26.58-18.17c15.48-3.28,28.06-14.41,33.37-29.04
			c5.03,4.43,11.62,7.12,18.84,7.12c7.5,0,14.31-2.9,19.4-7.63c7.13,4.65,15.64,7.36,24.79,7.36c15.39,0,28.99-7.65,37.23-19.35
			c2.68-3.81,4.8-8.04,6.21-12.58c1.34-4.28,2.06-8.84,2.06-13.57c0-4.81-0.75-9.45-2.14-13.8c6.36-9.26,10.1-20.48,10.1-32.57
			c0-12.02-3.68-23.18-9.98-32.42l0,0C1012.32,383,994.85,373,975.03,373c-31.47,0-57.04,25.23-57.62,56.56
			c-37.27,8.98-65.29,41.67-67.22,81.21c-8.1-4.22-17.3-6.62-27.07-6.62c-11.45,0-22.13,3.29-31.16,8.96c0-0.01,0-0.02,0-0.03
			c0-32.41-26.27-58.68-58.68-58.68c-28.26,0-51.85,19.98-57.43,46.58c-7.32-2.05-15.03-3.15-23-3.15
			c-34.33,0-63.91,20.32-77.38,49.58c-7.54-5.78-16.97-9.22-27.21-9.22c-14.26,0-26.95,6.67-35.16,17.05
			c-4.8-2.84-10.39-4.47-16.37-4.47c-12.85,0-23.94,7.53-29.11,18.41c-1.99,4.19-3.1,8.87-3.1,13.81l0,0H485.84z"/>
	</g>
</g>
</svg>
